<svg xmlns="http://www.w3.org/2000/svg" viewBox="0 0 750 500"><g id="freepik--background-complete--inject-2"><g id="freepik--freepik--tree-1--inject-2--inject-2"><path d="M716.612,216.538c-2.27031-1.3702-4.89911-2.0287-7.54731-1.891-1.6255-1.9737-.3152-4.9428,1.2607-6.9499,1.5757-2.0071,3.4999-4.2959,2.9028-6.7841-.9291-3.7321-6.1706-3.8813-9.95219-3.1515-1.39351-2.256-1.36041-5.0591-2.04051-7.6633-.68-2.6042-2.9027-5.341-5.3741-4.9762-2.4715,.365-3.99739,3.1019-6.4357,3.6824-2.8365,.6636-5.2915-1.8412-7.5142-3.7155-.273-.2341-.5611-.4502-.8623-.6469h0c.4644-7.7794,7.8622-6.5354,14.1652-7.5969,4.9265-.8127-8.1277-13.2698,1.82461-17.2839,1.92819-.5295,3.61869-1.6994,4.79369-3.3172,1.0314-2.5185,.11731-5.414-2.1729-6.8837-2.2655-1.3669-4.8881-2.0255-7.5306-1.891-1.6255-1.9739-.315-4.9429,1.2607-6.95,1.5758-2.007,3.4832-4.2961,2.9028-6.784-.9455-3.7322-6.1705-3.8815-9.9523-3.1518-1.39339-2.2557-1.3601-5.0589-2.0403-7.663-.68009-2.6042-2.88609-5.3411-5.37409-4.9763-2.48811,.3651-3.99751,3.102-6.43591,3.6824-2.8363,.6634-5.2913-1.8411-7.514-3.7155-2.2226-1.8743-6.104-3.0521-7.63-.5806-.9123,1.4597-.3649,3.5165-1.3269,4.9762-1.64219,2.4881-5.5733,.9619-7.9951-.8295-2.4217-1.7913-6.3362-3.4169-7.995-.9288-.43209,.8152-.7503,1.6859-.9454,2.5878-.236,.6421-.5658,1.2457-.9786,1.7913-.481-1.7252-.6304-3.5994-1.0782-5.3411-.6802-2.5876-2.8861-5.341-5.3743-4.9762-2.488,.3651-3.9973,3.1185-6.4357,3.6825-2.8365,.6799-5.2913-1.8413-7.51389-3.7155-2.22261-1.8744-6.10431-3.0522-7.63021-.564-.9121,1.4596-.36479,3.5164-1.327,4.9762-.1989,.3285-.4714,.6069-.796,.8127-.846-.166-1.6754-.166-2.50479-.166-1.62561-1.9572-.31511-4.9098,1.26069-6.9333,1.5757-2.0237,3.4998-4.3126,2.9027-6.7843-.9288-3.7486-6.17039-3.8813-9.9522-3.1515-1.3935-2.2724-1.3601-5.0756-2.04019-7.6631-.68011-2.5876-2.88631-5.3577-5.37431-4.9762-2.4879,.3815-3.9975,3.1184-6.4358,3.6988-2.8364,.6636-5.2912-1.8244-7.51389-3.7155-2.22271-1.8907-6.10421-3.0519-7.63021-.5804-.9121,1.4431-.36479,3.5165-1.3269,4.976-1.642,2.4717-5.5401,.9455-7.9783-.8459-2.4384-1.7914-6.3528-3.4169-8.0118-.9289-.435,.8199-.753,1.6965-.9454,2.6042-1.1445,3.3176-4.7439,4.9762-7.53039,7.0993-2.78671,2.1231-4.99291,6.3528-2.63751,8.9406,1.1611,1.2938,3.2179,1.7747,3.7984,3.4335,.7134,1.9573-1.3601,3.8647-3.0187,5.2746-2.1734,2.4129-2.8137,5.839-1.6587,8.8743-.8264,.7524-1.805,1.3182-2.8697,1.6586-2.8364,.6634-5.2912-1.8412-7.5139-3.7155-2.2226-1.8745-6.104-3.0521-7.6302-.5806-.9121,1.443-.3648,3.5165-1.3269,4.9762-1.642,2.4881-5.5401,.9619-7.9783-.8294-2.4384-1.7915-6.3528-3.417-8.0117-.9289-.4322,.8152-.7502,1.6859-.9455,2.5875-1.1444,3.3176-4.7439,4.9762-7.5304,7.0993-2.7866,2.1233-4.9927,6.353-2.6375,8.9572,1.1113,1.2936,3.0355,1.8244,3.6991,3.3173-1.9572-.7796-4.2133-.5804-5.1254,.8791-.9124,1.4596-.365,3.5164-1.327,4.9762-1.6422,2.4881-5.5402,.9621-7.9786-.8295-2.438-1.7914-6.3527-3.417-8.0114-.9288-.43509,.8198-.7534,1.6964-.9455,2.6042-1.1444,3.3175-4.7439,4.943-7.53059,7.0828-2.78671,2.1397-4.99261,6.3694-2.63731,8.9569,1.1611,1.2773,3.218,1.775,3.7984,3.4337,.72991,1.9572-1.3436,3.8646-3.0023,5.2746-2.7533,2.3222-3.251,9.3055,.3815,11.2295,1.5262,.7961,3.7986,1.2107,4.1304,2.7203,.3316,1.5094-1.1943,2.6704-2.2063,3.8315-.2343,.3008-.44439,.6198-.6285,.9538-1.9173,3.483-.6482,7.8608,2.8348,9.7781,.879,.3982,1.9405,.7465,2.2724,1.6586,.1251,.6814,.0503,1.3843-.2156,2.0238-.3479,1.2682-.4659,2.5883-.3484,3.898-.0006,.4503,.1716,.8836,.48091,1.2109,.33259,.2378,.73639,.355,1.14459,.3317,5.2415,.2321,7.7628-1.6255,10.9641,2.9358,.2796,.4594,.6526,.855,1.0946,1.1612,.4486,.2235,.942,.3427,1.4432,.3483,3.59951,.2986,5.9216-1.9407,9.2391-2.372,4.5945-.5805,5.54,1.7749,9.5707,3.6659,6.31971,2.9856,9.3882,1.1445,10.5825-3.1682,.31421-1.2216,.5031-2.4721,.564-3.7321-.0276-1.9015,.7783-3.7199,2.2061-4.9762h.0995c3.3671,.2821,5.63961-1.6421,8.5922-2.2392l1.8743-.1989c3.4998-.0334,4.6609,2.0732,8.2936,3.7319,1.6713,.8807,3.5193,1.3739,5.4072,1.443,.5309,1.9575-1.3932,3.7155-3.0519,5.0759-2.7369,2.3386-3.2344,9.3219,.39821,11.2294,1.50929,.7961,3.79839,1.244,4.13009,2.7368,.3317,1.4929-1.1943,2.6704-2.206,3.8151-.23209,.2979-.4403,.6136-.6228,.9442-1.9261,3.4885-.6597,7.878,2.8288,9.8042,.8625,.4146,1.9407,.7465,2.2558,1.6586,.14,.6847,.0704,1.3957-.199,2.0404-.3641,1.2594-.4824,2.5771-.3483,3.8813-.0059,.4533,.1599,.8918,.46441,1.2275,.34129,.2309,.74979,.3417,1.16109,.3151,5.2415,.2322,7.7627-1.6255,10.9642,2.936,.2705,.466,.6452,.8634,1.0946,1.1611,.45,.2218,.9418,.3461,1.44311,.3648,3.59949,.2985,5.92169-1.9573,9.239-2.3719,4.57809-.5804,5.54009,1.7748,9.55409,3.6657,6.3363,2.9692,9.40491,1.1445,10.5992-3.1682,.3152-1.2269,.5043-2.483,.564-3.7486,.4644-7.7627,7.8623-6.5352,14.1819-7.5804,.4462-.0352,.8389-.3077,1.0285-.7131h.3981c3.5995,.2985,5.9217-1.9408,9.239-2.3719,4.5945-.5807,5.54,1.7747,9.5708,3.6658,6.3196,2.9856,9.3882,1.1444,10.5825-3.1683,.3153-1.2271,.5042-2.483,.564-3.7485,.4147-6.0378,4.9761-6.6349,9.9522-7.0993,.1583,2.3889,1.5378,4.5273,3.6492,5.6562,.8792,.3979,1.9408,.7463,2.27251,1.6587,.12519,.6811,.05039,1.384-.21571,2.0235-.3469,1.2626-.4649,2.5771-.3482,3.8815-.00609,.453,.1598,.8918,.4644,1.2274,.3433,.2281,.749,.3439,1.1611,.3317,5.2415,.2323,7.7627-1.6256,10.9641,2.9358,.2797,.4594,.6527,.8549,1.0947,1.1612,.44861,.2237,.9419,.3429,1.443,.3484,3.5995,.2985,5.9217-1.9406,9.2391-2.3719,4.59451-.5807,5.5401,1.7747,9.5707,3.6657,6.3197,2.9857,9.3883,1.1444,10.5825-3.1682,.3142-1.2217,.50331-2.4721,.564-3.7321,.4644-7.7794,7.879-6.5354,14.182-7.5969,4.9264-.8127-8.1442-13.2695,1.808-17.2838,1.9281-.5296,3.6188-1.6995,4.7938-3.3174,.91751-2.4093,.0844-5.1341-2.02349-6.6184Z" style="fill:#e0e0e0;"></path><path d="M533.40259,262.8978c-1.8874-1.1482-4.0778-1.6989-6.2839-1.5797-1.3515-1.6499-.24569-4.1073,1.05331-5.7923,1.29889-1.685,2.91369-3.5106,2.40449-5.6521-.7371-3.1243-5.1078-3.2296-8.2497-2.6154-1.176-1.8955-1.1409-4.2477-1.7552-6.3891-.6144-2.1414-2.2819-4.3881-4.4761-4.1249-2.1939,.2633-3.3349,2.5978-5.371,3.0719-2.3522,.5615-4.4057-1.5273-6.2488-3.0895-1.8429-1.5621-5.0903-2.5451-6.37169-.4913-.75461,1.2287-.29831,2.9663-1.08811,4.1775-1.3866,2.1064-4.634,.7899-6.6702-.7021-2.036-1.4918-5.2658-2.8436-6.6699-.7724-.3537,.6834-.6192,1.4089-.78979,2.1592-.94791,2.7732-3.93181,4.1423-6.26641,5.915-2.3345,1.7728-4.1777,5.2658-2.1941,7.46,.9654,1.0708,2.668,1.5095,3.1596,2.861,.5967,1.7554-1.141,3.2298-2.51009,4.3883-2.28191,1.9483-2.70311,7.7759,.31589,9.3556,1.2814,.6669,3.1419,.8775,3.5106,2.2817,.3686,1.4042-.983,2.2292-1.7554,3.1947-2.0316,2.62-1.5547,6.3908,1.0653,8.4225,.2455,.1904,.50561,.3616,.7778,.5119,.7196,.3509,1.6149,.6317,1.8781,1.4041,.1303,.5889,.0689,1.2039-.1755,1.7552-.2933,1.0499-.3885,2.145-.28079,3.2298-.00761,.3765,.13069,.7413,.38619,1.018,.2807,.2,.6209,.2989,.9654,.2807,4.3529,.1933,6.45941-1.3513,9.12741,2.4399,.23309,.3823,.54429,.7112,.91279,.9654,.3766,.1874,.7904,.2892,1.2109,.2984,3.0017,.2459,4.9499-1.6148,7.7056-1.9658,3.7914-.4914,4.5989,1.4744,7.95171,3.054,5.26579,2.475,7.846,.948,8.77609-2.6504,.26091-1.0172,.4196-2.0579,.4741-3.1067,.3861-6.4769,6.5646-5.4588,11.8129-6.3366,4.1073-.6846-6.7577-11.0407,1.5095-14.3932,1.6183-.4359,3.0337-1.423,4.002-2.7908,.8909-2.1216,.1099-4.5759-1.843-5.7925Z" style="fill:#e0e0e0;"></path><path d="M613.66569,227.1093l6.7639-21.451,13.1688-16.9375-2.2498-1.8772-12.4235,13.5414-2.2086-21.4511h-3.5966s2.9549,25.4856-1.2967,34.817c0,0-15.4399,39.2819-24.8401,47.7853-.5324,.4929-.9967,1.0544-1.3805,1.67-2.819-7.2307-6.484-14.1021-10.9188-20.4711,3.7133-9.497,11.678-30.3682,14.3835-41.5356,2.1211-8.6744,3.7116-17.4698,4.7624-26.3377l-3.0796-.339s-8.7364,41.2535-23.1753,60.0267c-4.2777-3.9304-9.1276-7.1886-14.3835-9.6627-1.1734-5.7975-1.67029-15.8882,2.1671-31.6384l-3.0519-.7797s-5.824,13.3275-5.3134,29.3261c-2.1722-1.0916-4.266-2.3321-6.2667-3.7133-13.9143-9.7868-23.7011-27.4695-23.7011-27.4695l-2.8486,2.7718s11.8761,26.0782,28.427,34.7883c16.5508,8.7104,27.27631,29.9405,28.13231,35.5036,.23449,1.5873,2.14669,14.192-.50391,36.2751-17.61109-7.5128-52.5097-28.2031-54.8287-30.1081l-4.0625,5.4634,56.4615,40.4006c.8834,53.8349-3.0973,69.3337-2.94539,81.4536h32.88009c-.8098-16.7172-7.825-39.0686-4.7494-104.7726,.2622-1.615,.5384-3.4648,.8005-5.6181,2.5675-20.1537,17.8619-47.6892,25.1369-55.519,7.7958-8.3906,16.4601-15.0419,16.4601-15.0419l-2-4.2902-19.7195,15.1908Z" style="fill:#e6e6e6;"></path></g><g><g><g><g><path d="M673.73379,327.6994h-180.7461c-3.2324,0-5.8623-2.6298-5.8623-5.8623V58.5637c0-3.2324,2.6299-5.8618,5.8623-5.8618h180.7461c3.2323,0,5.86221,2.6294,5.86221,5.8618V321.8371c0,3.2325-2.62991,5.8623-5.86221,5.8623ZM492.98769,52.9519c-3.09469,0-5.6123,2.5176-5.6123,5.6118V321.8371c0,3.0948,2.51761,5.6123,5.6123,5.6123h180.7461c3.0946,0,5.61221-2.5175,5.61221-5.6123V58.5637c0-3.0942-2.51761-5.6118-5.61221-5.6118h-180.7461Z" style="fill:#e0e0e0;"></path><path d="M465.30609,327.6994h-180.7466c-3.2324,0-5.8618-2.6298-5.8618-5.8623V58.5637c0-3.2324,2.6294-5.8618,5.8618-5.8618h180.7466c3.2324,0,5.8623,2.6294,5.8623,5.8618V321.8371c0,3.2325-2.6299,5.8623-5.8623,5.8623ZM284.5595,52.9519c-3.0942,0-5.6118,2.5176-5.6118,5.6118V321.8371c0,3.0948,2.5176,5.6123,5.6118,5.6123h180.7466c3.0947,0,5.6123-2.5175,5.6123-5.6123V58.5637c0-3.0942-2.5176-5.6118-5.6123-5.6118h-180.7466Z" style="fill:#e0e0e0;"></path></g><path d="M257.0123,327.6994H76.2658c-3.2324,0-5.8618-2.6298-5.8618-5.8623V58.5637c0-3.2324,2.6294-5.8618,5.8618-5.8618h180.7465c3.2324,0,5.8623,2.6294,5.8623,5.8618V321.8371c0,3.2325-2.6299,5.8623-5.8623,5.8623ZM76.2658,52.9519c-3.0942,0-5.6118,2.5176-5.6118,5.6118V321.8371c0,3.0948,2.5176,5.6123,5.6118,5.6123h180.7465c3.0948,0,5.6123-2.5175,5.6123-5.6123V58.5637c0-3.0942-2.5175-5.6118-5.6123-5.6118H76.2658Z" style="fill:#e0e0e0;"></path></g><rect y="388.7688" width="750" height=".1204" style="fill:#e0e0e0;"></rect></g><g><rect x="653.62639" y="418.1449" width="55.7291" height=".4206" style="fill:#e0e0e0;"></rect><rect x="495.04359" y="422.7106" width="14.6268" height=".4206" style="fill:#e0e0e0;"></rect><rect x="40.6445" y="405.3476" width="72.6745" height=".4207" style="fill:#e0e0e0;"></rect><rect x="128.2991" y="405.3476" width="10.6555" height=".4207" style="fill:#e0e0e0;"></rect><rect x="173.5856" y="412.4517" width="157.61289" height=".4206" style="fill:#e0e0e0;"></rect></g></g><g id="freepik--freepik--background-complete--inject-481--inject-2"><polygon points="63.6307 271.004 64.6273 216.4251 95.2199 216.4251 95.2199 228.8718 117.74429 228.8718 117.74429 92.5336 161.0542 92.5336 161.0542 146.1952 174.0487 146.1952 174.0487 119.3987 207.8421 119.3987 207.8421 250.0816 255.4927 250.0816 255.4927 203.91 285.3701 203.91 285.3701 103.8029 322.2446 103.8029 322.2446 170.541 356.90079 170.541 356.90079 314.3141 383.75209 314.3141 383.75209 244.3033 411.47969 244.3033 411.47969 199.2544 440.93269 199.2544 440.93269 164.6666 473.79519 182.0017 473.79519 274.5368 508.45139 274.5368 508.45139 255.4492 554.74619 255.4492 554.74619 389.569 15.8845 389.8291 15.8845 271.004 63.6307 271.004" style="fill:#ebebeb;"></polygon><path d="M409.22049,389.6399V190.094h36.8196v199.7351c-11.6525-.2875-36.8196-.1892-36.8196-.1892Z" style="fill:#e6e6e6;"></path><path d="M442.75379,389.8291v-109.7466h75.7753v109.504l-75.7753,.2426Z" style="fill:#fafafa;"></path><path d="M350.68419,389.6676V228.5568h42.9265v161.09l-42.9265,.0208Z" style="fill:#e0e0e0;"></path><rect x="385.14869" y="234.8692" width="5.2032" height="10.735" style="fill:#fafafa;"></rect><rect x="374.74229" y="234.8692" width="5.2032" height="10.735" style="fill:#fafafa;"></rect><rect x="364.33589" y="234.8692" width="5.2032" height="10.735" style="fill:#fafafa;"></rect><rect x="353.92929" y="234.8692" width="5.2032" height="10.735" style="fill:#fafafa;"></rect><rect x="385.14869" y="252.875" width="5.2032" height="10.735" style="fill:#fafafa;"></rect><rect x="374.74229" y="252.875" width="5.2032" height="10.735" style="fill:#fafafa;"></rect><rect x="364.33589" y="252.875" width="5.2032" height="10.735" style="fill:#fafafa;"></rect><rect x="353.92929" y="252.875" width="5.2032" height="10.735" style="fill:#fafafa;"></rect><rect x="385.14869" y="270.8673" width="5.2032" height="10.735" style="fill:#fafafa;"></rect><rect x="374.74229" y="270.8673" width="5.2032" height="10.735" style="fill:#fafafa;"></rect><rect x="364.33589" y="270.8673" width="5.2032" height="10.735" style="fill:#fafafa;"></rect><rect x="353.92929" y="270.8673" width="5.2032" height="10.735" style="fill:#fafafa;"></rect><rect x="385.14869" y="288.8594" width="5.2032" height="10.7351" style="fill:#fafafa;"></rect><rect x="374.74229" y="288.8594" width="5.2032" height="10.7351" style="fill:#fafafa;"></rect><rect x="364.33589" y="288.8594" width="5.2032" height="10.7351" style="fill:#fafafa;"></rect><rect x="353.92929" y="288.8594" width="5.2032" height="10.7351" style="fill:#fafafa;"></rect><rect x="385.14869" y="306.8516" width="5.2032" height="10.735" style="fill:#fafafa;"></rect><rect x="374.74229" y="306.8516" width="5.2032" height="10.735" style="fill:#fafafa;"></rect><rect x="364.33589" y="306.8516" width="5.2032" height="10.735" style="fill:#fafafa;"></rect><rect x="353.92929" y="306.8516" width="5.2032" height="10.735" style="fill:#fafafa;"></rect><rect x="385.14869" y="324.8438" width="5.2032" height="10.7349" style="fill:#fafafa;"></rect><rect x="374.74229" y="324.8438" width="5.2032" height="10.7349" style="fill:#fafafa;"></rect><rect x="364.33589" y="324.8438" width="5.2032" height="10.7349" style="fill:#fafafa;"></rect><rect x="353.92929" y="324.8438" width="5.2032" height="10.7349" style="fill:#fafafa;"></rect><rect x="385.14869" y="342.836" width="5.2032" height="10.735" style="fill:#fafafa;"></rect><rect x="374.74229" y="342.836" width="5.2032" height="10.735" style="fill:#fafafa;"></rect><rect x="364.33589" y="342.836" width="5.2032" height="10.735" style="fill:#fafafa;"></rect><rect x="353.92929" y="342.836" width="5.2032" height="10.735" style="fill:#fafafa;"></rect><rect x="385.14869" y="360.8418" width="5.2032" height="10.7351" style="fill:#fafafa;"></rect><rect x="374.74229" y="360.8418" width="5.2032" height="10.7351" style="fill:#fafafa;"></rect><rect x="364.33589" y="360.8418" width="5.2032" height="10.7351" style="fill:#fafafa;"></rect><rect x="353.92929" y="360.8418" width="5.2032" height="10.7351" style="fill:#fafafa;"></rect><path d="M201.5162,389.7396V205.6079h89.0023v184.1939s-88.3204,.0273-89.0023-.0622Z" style="fill:#f5f5f5;"></path><rect x="273.0467" y="212.9472" width="10.79" height="12.3645" style="fill:#e6e6e6;"></rect><rect x="251.4534" y="212.9472" width="10.7898" height="12.3645" style="fill:#e6e6e6;"></rect><rect x="229.8737" y="212.9472" width="10.7898" height="12.3645" style="fill:#e6e6e6;"></rect><rect x="208.2803" y="212.9472" width="10.79" height="12.3645" style="fill:#e6e6e6;"></rect><rect x="273.0467" y="233.6915" width="10.79" height="12.3645" style="fill:#e6e6e6;"></rect><rect x="251.4534" y="233.6915" width="10.7898" height="12.3645" style="fill:#e6e6e6;"></rect><rect x="229.8737" y="233.6915" width="10.7898" height="12.3645" style="fill:#e6e6e6;"></rect><rect x="208.2803" y="233.6915" width="10.79" height="12.3645" style="fill:#e6e6e6;"></rect><rect x="273.0467" y="254.4222" width="10.79" height="12.3646" style="fill:#e6e6e6;"></rect><rect x="251.4534" y="254.4222" width="10.7898" height="12.3646" style="fill:#e6e6e6;"></rect><rect x="229.8737" y="254.4222" width="10.7898" height="12.3646" style="fill:#e6e6e6;"></rect><rect x="208.2803" y="254.4222" width="10.79" height="12.3646" style="fill:#e6e6e6;"></rect><rect x="273.0467" y="275.153" width="10.79" height="12.3645" style="fill:#e6e6e6;"></rect><rect x="251.4534" y="275.153" width="10.7898" height="12.3645" style="fill:#e6e6e6;"></rect><rect x="229.8737" y="275.153" width="10.7898" height="12.3645" style="fill:#e6e6e6;"></rect><rect x="208.2803" y="275.153" width="10.79" height="12.3645" style="fill:#e6e6e6;"></rect><rect x="273.0467" y="295.8974" width="10.79" height="12.3644" style="fill:#e6e6e6;"></rect><rect x="251.4534" y="295.8974" width="10.7898" height="12.3644" style="fill:#e6e6e6;"></rect><rect x="229.8737" y="295.8974" width="10.7898" height="12.3644" style="fill:#e6e6e6;"></rect><rect x="208.2803" y="295.8974" width="10.79" height="12.3644" style="fill:#e6e6e6;"></rect><rect x="273.0467" y="316.6281" width="10.79" height="12.3645" style="fill:#e6e6e6;"></rect><rect x="251.4534" y="316.6281" width="10.7898" height="12.3645" style="fill:#e6e6e6;"></rect><rect x="229.8737" y="316.6281" width="10.7898" height="12.3645" style="fill:#e6e6e6;"></rect><rect x="208.2803" y="316.6281" width="10.79" height="12.3645" style="fill:#e6e6e6;"></rect><rect x="273.0467" y="337.3726" width="10.79" height="12.3645" style="fill:#e6e6e6;"></rect><rect x="251.4534" y="337.3726" width="10.7898" height="12.3645" style="fill:#e6e6e6;"></rect><rect x="229.8737" y="337.3726" width="10.7898" height="12.3645" style="fill:#e6e6e6;"></rect><rect x="208.2803" y="337.3726" width="10.79" height="12.3645" style="fill:#e6e6e6;"></rect><rect x="273.0467" y="358.1032" width="10.79" height="12.3645" style="fill:#e6e6e6;"></rect><rect x="251.4534" y="358.1032" width="10.7898" height="12.3645" style="fill:#e6e6e6;"></rect><rect x="229.8737" y="358.1032" width="10.7898" height="12.3645" style="fill:#e6e6e6;"></rect><rect x="208.2803" y="358.1032" width="10.79" height="12.3645" style="fill:#e6e6e6;"></rect><rect x="429.30849" y="203.6567" width="9.9428" height="11.3938" style="fill:#fafafa;"></rect><rect x="429.30849" y="222.7602" width="9.9428" height="11.3939" style="fill:#fafafa;"></rect><rect x="429.30849" y="241.8763" width="9.9428" height="11.3938" style="fill:#fafafa;"></rect><rect x="429.30849" y="260.9798" width="9.9428" height="11.3938" style="fill:#fafafa;"></rect><rect x="429.30849" y="280.0832" width="9.9428" height="11.3939" style="fill:#fafafa;"></rect><rect x="429.30849" y="299.1993" width="9.9428" height="11.394" style="fill:#fafafa;"></rect><rect x="429.30849" y="318.3027" width="9.9428" height="11.394" style="fill:#fafafa;"></rect><rect x="429.30849" y="337.4189" width="9.9428" height="11.3939" style="fill:#fafafa;"></rect><rect x="416.00909" y="203.6567" width="9.9431" height="11.3938" style="fill:#fafafa;"></rect><rect x="416.00909" y="222.7602" width="9.9431" height="11.3939" style="fill:#fafafa;"></rect><rect x="416.00909" y="241.8763" width="9.9431" height="11.3938" style="fill:#fafafa;"></rect><rect x="416.00909" y="260.9798" width="9.9431" height="11.3938" style="fill:#fafafa;"></rect><rect x="416.00909" y="280.0832" width="9.9431" height="11.3939" style="fill:#fafafa;"></rect><rect x="416.00909" y="299.1993" width="9.9431" height="11.394" style="fill:#fafafa;"></rect><rect x="416.00909" y="318.3027" width="9.9431" height="11.394" style="fill:#fafafa;"></rect><rect x="416.00909" y="337.4189" width="9.9431" height="11.3939" style="fill:#fafafa;"></rect><rect x="303.0201" y="117.0456" width="10.7898" height="12.3645" style="fill:#fafafa;"></rect><rect x="303.0201" y="137.7764" width="10.7898" height="12.3644" style="fill:#fafafa;"></rect><rect x="303.0201" y="157.0947" width="10.7898" height="12.3646" style="fill:#fafafa;"></rect><rect x="303.0201" y="177.8255" width="10.7898" height="12.3644" style="fill:#fafafa;"></rect><rect x="303.0201" y="198.5561" width="10.7898" height="12.3645" style="fill:#fafafa;"></rect><rect x="303.0201" y="219.3005" width="10.7898" height="12.3646" style="fill:#fafafa;"></rect><rect x="303.0201" y="240.0314" width="10.7898" height="12.3644" style="fill:#fafafa;"></rect><rect x="303.0201" y="260.7757" width="10.7898" height="12.3644" style="fill:#fafafa;"></rect><rect x="140.9397" y="99.0652" width="10.7899" height="12.3644" style="fill:#fafafa;"></rect><rect x="140.9397" y="119.7959" width="10.7899" height="12.3646" style="fill:#fafafa;"></rect><rect x="140.9397" y="140.5402" width="10.7899" height="12.3646" style="fill:#fafafa;"></rect><rect x="140.9397" y="161.271" width="10.7899" height="12.3645" style="fill:#fafafa;"></rect><rect x="140.9397" y="182.0153" width="10.7899" height="12.3645" style="fill:#fafafa;"></rect><rect x="140.9397" y="202.7461" width="10.7899" height="12.3645" style="fill:#fafafa;"></rect><rect x="140.9397" y="223.4906" width="10.7899" height="12.3644" style="fill:#fafafa;"></rect><rect x="140.9397" y="244.2213" width="10.7899" height="12.3643" style="fill:#fafafa;"></rect><rect x="63.6307" y="194.3251" width="64.98553" height="195.504" style="fill:#e6e6e6;"></rect><rect x="99.9575" y="203.9648" width="19.04658" height="12.3644" style="fill:#fafafa;"></rect><rect x="99.9575" y="224.7092" width="19.04658" height="12.3645" style="fill:#fafafa;"></rect><rect x="99.9575" y="245.4399" width="19.04658" height="12.3644" style="fill:#fafafa;"></rect><rect x="99.9575" y="266.1843" width="19.04658" height="12.3646" style="fill:#fafafa;"></rect><rect x="99.9575" y="286.915" width="19.04658" height="12.3646" style="fill:#fafafa;"></rect><rect x="99.9575" y="307.6458" width="19.04658" height="12.3645" style="fill:#fafafa;"></rect><rect x="99.9575" y="328.3901" width="19.04658" height="12.3645" style="fill:#fafafa;"></rect><rect x="99.9575" y="349.1209" width="19.04658" height="12.3645" style="fill:#fafafa;"></rect><rect x="74.4754" y="203.9648" width="19.0465" height="12.3644" style="fill:#fafafa;"></rect><rect x="74.4754" y="224.7092" width="19.0465" height="12.3645" style="fill:#fafafa;"></rect><rect x="74.4754" y="245.4399" width="19.0465" height="12.3644" style="fill:#fafafa;"></rect><rect x="74.4754" y="266.1843" width="19.0465" height="12.3646" style="fill:#fafafa;"></rect><rect x="74.4754" y="286.915" width="19.0465" height="12.3646" style="fill:#fafafa;"></rect><rect x="74.4754" y="307.6458" width="19.0465" height="12.3645" style="fill:#fafafa;"></rect><rect x="74.4754" y="328.3901" width="19.0465" height="12.3645" style="fill:#fafafa;"></rect><rect x="74.4754" y="349.1209" width="19.0465" height="12.3645" style="fill:#fafafa;"></rect><path d="M164.053,389.7578V254.4222h28.3439v135.3217l-28.3439,.0139Z" style="fill:#e0e0e0;"></path><rect x="186.8102" y="259.8994" width="3.4369" height="9.2152" style="fill:#fafafa;"></rect><rect x="179.9366" y="259.8994" width="3.4368" height="9.2152" style="fill:#fafafa;"></rect><rect x="173.0765" y="259.8994" width="3.4368" height="9.2152" style="fill:#fafafa;"></rect><rect x="166.2027" y="259.8994" width="3.4369" height="9.2152" style="fill:#fafafa;"></rect><rect x="186.8102" y="275.3584" width="3.4369" height="9.2151" style="fill:#fafafa;"></rect><rect x="179.9366" y="275.3584" width="3.4368" height="9.2151" style="fill:#fafafa;"></rect><rect x="173.0765" y="275.3584" width="3.4368" height="9.2151" style="fill:#fafafa;"></rect><rect x="166.2027" y="275.3584" width="3.4369" height="9.2151" style="fill:#fafafa;"></rect><rect x="186.8102" y="290.8174" width="3.4369" height="9.2152" style="fill:#fafafa;"></rect><rect x="179.9366" y="290.8174" width="3.4368" height="9.2152" style="fill:#fafafa;"></rect><rect x="173.0765" y="290.8174" width="3.4368" height="9.2152" style="fill:#fafafa;"></rect><rect x="166.2027" y="290.8174" width="3.4369" height="9.2152" style="fill:#fafafa;"></rect><rect x="186.8102" y="306.2764" width="3.4369" height="9.2152" style="fill:#fafafa;"></rect><rect x="179.9366" y="306.2764" width="3.4368" height="9.2152" style="fill:#fafafa;"></rect><rect x="173.0765" y="306.2764" width="3.4368" height="9.2152" style="fill:#fafafa;"></rect><rect x="166.2027" y="306.2764" width="3.4369" height="9.2152" style="fill:#fafafa;"></rect><rect x="186.8102" y="321.7492" width="3.4369" height="9.2152" style="fill:#fafafa;"></rect><rect x="179.9366" y="321.7492" width="3.4368" height="9.2152" style="fill:#fafafa;"></rect><rect x="173.0765" y="321.7492" width="3.4368" height="9.2152" style="fill:#fafafa;"></rect><rect x="166.2027" y="321.7492" width="3.4369" height="9.2152" style="fill:#fafafa;"></rect><rect x="186.8102" y="337.2083" width="3.4369" height="9.2152" style="fill:#fafafa;"></rect><rect x="179.9366" y="337.2083" width="3.4368" height="9.2152" style="fill:#fafafa;"></rect><rect x="173.0765" y="337.2083" width="3.4368" height="9.2152" style="fill:#fafafa;"></rect><rect x="166.2027" y="337.2083" width="3.4369" height="9.2152" style="fill:#fafafa;"></rect><rect x="186.8102" y="352.6674" width="3.4369" height="9.2152" style="fill:#fafafa;"></rect><rect x="179.9366" y="352.6674" width="3.4368" height="9.2152" style="fill:#fafafa;"></rect><rect x="173.0765" y="352.6674" width="3.4368" height="9.2152" style="fill:#fafafa;"></rect><rect x="166.2027" y="352.6674" width="3.4369" height="9.2152" style="fill:#fafafa;"></rect><rect x="186.8102" y="368.1263" width="3.4369" height="9.2153" style="fill:#fafafa;"></rect><rect x="179.9366" y="368.1263" width="3.4368" height="9.2153" style="fill:#fafafa;"></rect><rect x="173.0765" y="368.1263" width="3.4368" height="9.2153" style="fill:#fafafa;"></rect><rect x="166.2027" y="368.1263" width="3.4369" height="9.2153" style="fill:#fafafa;"></rect><rect x="503.60419" y="284.6695" width="9.1877" height="7.7363" style="fill:#e6e6e6;"></rect><rect x="485.22849" y="284.6695" width="9.1878" height="7.7363" style="fill:#e6e6e6;"></rect><rect x="466.86669" y="284.6695" width="9.1876" height="7.7363" style="fill:#e6e6e6;"></rect><rect x="448.491" y="284.6695" width="9.18789" height="7.7363" style="fill:#e6e6e6;"></rect><rect x="503.60419" y="297.6364" width="9.1877" height="7.7363" style="fill:#e6e6e6;"></rect><rect x="485.22849" y="297.6364" width="9.1878" height="7.7363" style="fill:#e6e6e6;"></rect><rect x="466.86669" y="297.6364" width="9.1876" height="7.7363" style="fill:#e6e6e6;"></rect><rect x="448.491" y="297.6364" width="9.18789" height="7.7363" style="fill:#e6e6e6;"></rect><rect x="503.60419" y="310.6035" width="9.1877" height="7.7362" style="fill:#e6e6e6;"></rect><rect x="485.22849" y="310.6035" width="9.1878" height="7.7362" style="fill:#e6e6e6;"></rect><rect x="466.86669" y="310.6035" width="9.1876" height="7.7362" style="fill:#e6e6e6;"></rect><rect x="448.491" y="310.6035" width="9.18789" height="7.7362" style="fill:#e6e6e6;"></rect><rect x="503.60419" y="323.5704" width="9.1877" height="7.7362" style="fill:#e6e6e6;"></rect><rect x="485.22849" y="323.5704" width="9.1878" height="7.7362" style="fill:#e6e6e6;"></rect><rect x="466.86669" y="323.5704" width="9.1876" height="7.7362" style="fill:#e6e6e6;"></rect><rect x="448.491" y="323.5704" width="9.18789" height="7.7362" style="fill:#e6e6e6;"></rect><rect x="503.60419" y="336.5236" width="9.1877" height="7.7364" style="fill:#e6e6e6;"></rect><rect x="485.22849" y="336.5236" width="9.1878" height="7.7364" style="fill:#e6e6e6;"></rect><rect x="466.86669" y="336.5236" width="9.1876" height="7.7364" style="fill:#e6e6e6;"></rect><rect x="448.491" y="336.5236" width="9.18789" height="7.7364" style="fill:#e6e6e6;"></rect><rect x="503.60419" y="349.4906" width="9.1877" height="7.7363" style="fill:#e6e6e6;"></rect><rect x="485.22849" y="349.4906" width="9.1878" height="7.7363" style="fill:#e6e6e6;"></rect><rect x="466.86669" y="349.4906" width="9.1876" height="7.7363" style="fill:#e6e6e6;"></rect><rect x="448.491" y="349.4906" width="9.18789" height="7.7363" style="fill:#e6e6e6;"></rect><rect x="503.60419" y="362.4576" width="9.1877" height="7.7363" style="fill:#e6e6e6;"></rect><rect x="485.22849" y="362.4576" width="9.1878" height="7.7363" style="fill:#e6e6e6;"></rect><rect x="466.86669" y="362.4576" width="9.1876" height="7.7363" style="fill:#e6e6e6;"></rect><rect x="448.491" y="362.4576" width="9.18789" height="7.7363" style="fill:#e6e6e6;"></rect></g><path d="M429.65659,110.8412c-2.1654-1.636-5.3249-1.8214-7.6668-.4497-3.1084-6.2815-11.77079-9.0537-17.9487-5.7442-1.6117-6.7687-8.2807-11.9715-15.2383-11.8879-6.9576,.0838-13.4996,5.4455-14.9479,12.2512-.2302,1.0815-.3825,2.2664-1.1561,3.0565-1.2567,1.2836-3.35479,.8527-5.14579,.7131-5.63461-.4396-11.30431,3.5163-12.83661,8.9562l77.5957-.2824c.6796-2.6273-.4902-4.9769-2.6555-6.6128Z" style="fill:#f0f0f0;"></path><path d="M451.04139,82.549c-.9695-.7325-2.3841-.8155-3.4326-.2013-1.39179-2.8124-5.2702-4.0536-8.0362-2.5718-.72159-3.0306-3.70759-5.36-6.82259-5.3226-3.11521,.0375-6.04421,2.4381-6.69271,5.4852-.103,.4842-.1712,1.0147-.5176,1.3685-.5626,.5747-1.502,.3818-2.3039,.3192-2.52279-.1967-5.0613,1.5744-5.7474,4.01l34.7419-.1264c.3043-1.1764-.2194-2.2283-1.1889-2.9608Z" style="fill:#f0f0f0;"></path><path d="M81.8728,122.569c-.9695-.7325-2.3841-.8155-3.4326-.2013-1.3918-2.8124-5.2702-4.0536-8.0362-2.5718-.7216-3.0306-3.7076-5.36-6.8226-5.3226-3.1152,.0375-6.0442,2.4381-6.6927,5.4852-.103,.4842-.1712,1.0147-.5176,1.3685-.5626,.5747-1.502,.3818-2.3039,.3192-2.5228-.1967-5.0613,1.5744-5.7474,4.01l34.7419-.1264c.3043-1.1764-.2194-2.2283-1.1889-2.9608Z" style="fill:#f0f0f0;"></path><path d="M673.536,84.1812c-1.57671-1.1912-3.87721-1.3261-5.58231-.3273-2.2633-4.5736-8.5705-6.5921-13.06869-4.1824-1.17351-4.9284-6.02941-8.7166-11.09511-8.6558-5.0661,.061-9.8293,3.965-10.88389,8.9203-.16751,.7874-.27841,1.6501-.84181,2.2255-.9149,.9346-2.4426,.6209-3.7466,.5191-4.1027-.3199-8.2309,2.5603-9.3467,6.5212l56.4985-.2056c.4949-1.9131-.3568-3.6237-1.93339-4.815Z" style="fill:#f0f0f0;"></path><path d="M251.5577,83.459c-1.7325-1.309-4.2604-1.4573-6.1341-.3598-2.4871-5.0257-9.4177-7.2437-14.3605-4.5957-1.2895-5.4157-6.6255-9.5783-12.1919-9.5115-5.5669,.0671-10.801,4.3569-11.9598,9.802-.1841,.8653-.3059,1.8133-.925,2.4455-1.0053,1.027-2.684,.6823-4.117,.5704-4.5082-.3515-9.0445,2.8135-10.2705,7.1659l62.0833-.2259c.5438-2.1022-.3921-3.982-2.1245-5.2909Z" style="fill:#f0f0f0;"></path></g><g id="freepik--Shadow--inject-2"><path d="M679.40439,455.4408c0,3.3867-136.2865,6.1322-304.40439,6.1322s-304.4044-2.7455-304.4044-6.1322,136.2865-6.1323,304.4044-6.1323,304.40439,2.7455,304.40439,6.1323Z" style="fill:#f5f5f5;"></path></g><g id="freepik--Bus--inject-2"><g><g><rect x="293.1" y="379.5638" width="67.96439" height="54.0889" style="fill:#162041;"></rect><rect x="293.1" y="379.5638" width="67.96439" height="54.0889" style="opacity:.5;"></rect></g><g><ellipse cx="320.3462" cy="424.22248" rx="19.4234" ry="30.38893" style="fill:#263238;"></ellipse><path d="M322.93729,424.2225c0,10.4896,2.5755,24.9278-2.5911,30.3889h-16.8323c-10.7272,0-19.4234-13.6056-19.4234-30.3889s8.6962-30.389,19.4234-30.389c4.6141,0,16.2873-.5511,16.8323,0,4.9982,5.0535,2.5911,20.8246,2.5911,30.389Z" style="fill:#263238;"></path><ellipse cx="321.69697" cy="423.29223" rx="9.90408" ry="15.49548" style="fill:#fff; opacity:.3;"></ellipse></g><g><rect x="516.20989" y="379.5638" width="67.9643" height="54.0889" style="fill:#162041;"></rect><rect x="516.20989" y="379.5638" width="67.9643" height="54.0889" style="opacity:.5;"></rect></g><g><ellipse cx="543.45599" cy="424.22248" rx="19.4234" ry="30.38893" style="fill:#263238;"></ellipse><path d="M546.04709,424.2225c0,10.4896,2.5756,24.9278-2.59109,30.3889h-16.83221c-10.7273,0-19.4234-13.6056-19.4234-30.3889s8.6961-30.389,19.4234-30.389c4.614,0,16.28721-.5511,16.83221,0,4.99829,5.0535,2.59109,20.8246,2.59109,30.389Z" style="fill:#263238;"></path><ellipse cx="544.80679" cy="423.29223" rx="9.9041" ry="15.49548" style="fill:#fff; opacity:.3;"></ellipse></g><g><ellipse cx="454.61719" cy="424.22248" rx="19.4234" ry="30.38893" style="fill:#263238;"></ellipse><path d="M457.20839,424.2225c0,10.4896,2.5755,24.9278-2.5912,30.3889h-16.83219c-10.72731,0-19.42341-13.6056-19.42341-30.3889s8.6961-30.389,19.42341-30.389c4.614,0,16.28719-.5511,16.83219,0,4.9983,5.0535,2.5912,20.8246,2.5912,30.389Z" style="fill:#263238;"></path><ellipse cx="455.968" cy="423.29223" rx="9.9041" ry="15.49548" style="fill:#fff; opacity:.3;"></ellipse></g><path d="M437.785,393.8335c4.61409,0,16.28719-.5511,16.83219,0,10.7273,0,19.4234,13.6056,19.4234,30.389s-8.6961,30.3889-19.4234,30.3889h-16.83219c-10.72731,0-19.42351-13.6056-19.42351-30.3889s8.6962-30.389,19.42351-30.389Z" style="opacity:.3;"></path><g><ellipse cx="201.0412" cy="424.22248" rx="19.4234" ry="30.38893" style="fill:#263238;"></ellipse><path d="M203.6323,424.2225c0,10.4896,2.5756,24.9278-2.5911,30.3889h-16.8323c-10.7272,0-19.4233-13.6056-19.4233-30.3889s8.6961-30.389,19.4233-30.389c4.6141,0,16.2873-.5511,16.8323,0,4.9983,5.0535,2.5911,20.8246,2.5911,30.389Z" style="fill:#263238;"></path><ellipse cx="202.392" cy="423.29223" rx="9.9041" ry="15.49548" style="fill:#fff; opacity:.3;"></ellipse></g><path d="M184.0718,393.8335c4.6141,0,16.2872-.5511,16.8323,0,10.7272,0,19.4234,13.6056,19.4234,30.389s-8.6962,30.3889-19.4234,30.3889h-16.8323c-10.7273,0-19.4234-13.6056-19.4234-30.3889s8.6961-30.389,19.4234-30.389Z" style="opacity:.3;"></path><path d="M685.95279,185.241c0-9.5679-7.7563-17.3242-17.3242-17.3242H150.4845c-17.35796,.2268-29.82417-1.1814-35.7313,11.8571-5.7378,12.6646-13.0926,38.3964-25.0123,89.5924-7.4405,31.9571-22.3912,108.0514-17.8604,139.9085l1.2673,6.2043c.977,10.3043,9.5929,18.1736,19.8977,18.1736h206.5372c-1.2411-4.1218-1.9344-8.6725-1.9344-13.461,0-18.5432,10.3275-33.5754,23.067-33.5754s23.0671,15.0322,23.0671,33.5754c0,4.7885-.69339,9.3392-1.93439,13.461h183.22459c-1.241-4.1218-1.9344-8.6725-1.9344-13.461,0-18.5432,10.3275-33.5754,23.0671-33.5754s23.0671,15.0322,23.0671,33.5754c0,4.7885-.69339,9.3392-1.93439,13.461h98.62709c11.039,0,19.9877-8.9888,19.9877-20.077V185.241Z" style="fill:#162041;"></path><path d="M685.95279,397.0899h-9.6453v25.9571h7.2846s2.3607-3.922,2.3607-8.7601v-17.197Z" style="fill:#fff; opacity:.5;"></path><path d="M370.31969,418.0222h-7.4158c-1.4361,0-2.6003-1.1642-2.6003-2.6003h0c0-1.4361,1.1642-2.6003,2.6003-2.6003h7.4158c1.4361,0,2.60031,1.1642,2.60031,2.6003h0c0,1.4361-1.16421,2.6003-2.60031,2.6003Z" style="fill:#fff;"></path><path d="M500.23779,416.3092h-7.4157c-1.43609,0-2.6003-1.1642-2.6003-2.6003h0c0-1.4361,1.16421-2.6003,2.6003-2.6003h7.4157c1.4361,0,2.6003,1.1642,2.6003,2.6003h0c0,1.4361-1.1642,2.6003-2.6003,2.6003Z" style="fill:#fff;"></path><path d="M626.02549,416.4169h-7.4157c-1.4361,0-2.6003-1.1642-2.6003-2.6004h0c0-1.4361,1.1642-2.6003,2.6003-2.6003h7.4157c1.4361,0,2.6003,1.1642,2.6003,2.6003h0c0,1.4362-1.1642,2.6004-2.6003,2.6004Z" style="fill:#fff;"></path><path d="M75.0601,395.8558s1.7516,11.5875,10.5095,12.8001c8.758,1.2126,31.1244,.2695,31.1244,.2695l-1.68394-4.3034c-1.91636-4.8973-6.59716-8.1553-11.85516-8.2516l-28.0948-.5146Z" style="fill:#fff; opacity:.4;"></path><rect x="127.63267" y="422.454" width="38.46503" height="11.1987" style="fill:#263238;"></rect><path d="M89.7201,427.1051c0,1.6592-1.0019,3.0043-2.2379,3.0043-1.2359,0-2.2379-1.3451-2.2379-3.0043,0-1.6593,1.002-3.0044,2.2379-3.0044,1.236,0,2.2379,1.3451,2.2379,3.0044Z" style="fill:#fff;"></path><ellipse cx="94.9069" cy="427.1051" rx="1.4924" ry="2.0035" style="fill:#fff;"></ellipse><path d="M74.3024,421.4752h23.3638c6.7254,0,12.1774,5.4521,12.1774,12.1775h0" style="fill:none; stroke:#263238; stroke-miterlimit:10;"></path><path d="M204.0103,427.1051c0,1.6592,1.0019,3.0043,2.2379,3.0043s2.2379-1.3451,2.2379-3.0043c0-1.6593-1.0019-3.0044-2.2379-3.0044s-2.2379,1.3451-2.2379,3.0044Z" style="fill:#fff;"></path><ellipse cx="198.8235" cy="427.1051" rx="1.4924" ry="2.0035" style="fill:#fff;"></ellipse><path d="M232.7285,421.4752h-36.6643c-6.7254,0-12.1774,5.4521-12.1774,12.1775h0" style="fill:none; stroke:#263238; stroke-miterlimit:10;"></path><path d="M343.32289,423.047h180.7097" style="fill:none; stroke:#263238; stroke-miterlimit:10;"></path><path d="M568.31409,423.047h114.5347" style="fill:none; stroke:#263238; stroke-miterlimit:10;"></path><path d="M580.47929,423.2922v-59.5444" style="fill:none; stroke:#263238; stroke-miterlimit:10;"></path><path d="M635.29229,423.047v-77.5342" style="fill:none; stroke:#263238; stroke-miterlimit:10;"></path><path d="M353.75739,423.047v-59.2992" style="fill:none; stroke:#263238; stroke-miterlimit:10;"></path><circle cx="87.1564" cy="402.5093" r="5.5584" style="fill:#fff; opacity:.4;"></circle><g><path d="M228.0327,395.8558s-1.7516,11.5875-10.5095,12.8001c-8.758,1.2126-31.1244,.2695-31.1244,.2695l1.8908-4.8319c1.7911-4.5775,6.1662-7.6227,11.0808-7.7127l28.6623-.525Z" style="fill:#fff; opacity:.4;"></path><circle cx="212.7895" cy="402.5093" r="5.5584" style="fill:#fff; opacity:.4;"></circle></g><path d="M70.874,388.5351c2.1991,.03,166.2291,0,166.2291,0" style="fill:none; stroke:#263238; stroke-miterlimit:10;"></path><g><polygon points="229.8005 270.3333 102.3058 270.3333 102.7924 250.8057 229.8005 250.8057 229.8005 270.3333"></polygon><rect x="122.40898" y="255.8296" width="6.99812" height="11.0026" style="fill:#fff;"></rect><rect x="130.91727" y="255.8296" width="6.70173" height="11.0026" style="fill:#fff;"></rect><rect x="149.0574" y="258.8615" width="54.9205" height="4.337" style="fill:#fff;"></rect></g><path d="M114.384,179.7739h123.9078l-8.9249,58.0708H96.9293s11.5484-47.1685,17.4547-58.0708Z" style="fill:#263238;"></path><polygon points="345.68359 186.0101 685.95279 186.6655 685.95279 239.6233 390.15569 241.106 345.68359 186.0101" style="fill:#263238;"></polygon><path d="M86.2432,283.5055l133.7971,.739-11.4678,92.866-137.1256,.0001c-.6778,.1197,5.2652-44.5121,10.7386-73.6956,1.5804-8.4265,2.8905-16.0226,4.0577-19.9095Z" style="fill:#263238;"></path><polyline points="229.3669 237.8447 254.4511 237.8447 353.75739 363.7478 635.29229 363.7478 635.29229 285.6188 372.92 285.6188 293.1 179.7739 233.1823 179.7739 223.3092 237.8447" style="fill:#263238;"></polyline><polygon points="220.3275 284.0335 250.5098 284.0335 306.5356 377.1108 208.5725 377.1105 220.3275 284.0335" style="fill:#263238;"></polygon><path d="M114.3841,179.7739c-5.7378,12.6646-13.0926,38.3964-25.0124,89.5924-7.4405,31.9571-22.3911,108.0514-17.8603,139.9085l1.2673,6.2043c.977,10.3043,9.5928,18.1736,19.8976,18.1736H231.1531l34.3791-265.7359h-115.4169c-17.3579,.2268-29.82412-1.1814-35.7312,11.8571Z" style="fill:#fff; opacity:.2;"></path><polygon points="275.445 315.3924 275.445 379.5638 278.7178 379.5638 278.7178 317.4379 275.445 315.3924" style="fill:#162041;"></polygon><rect x="421.61159" y="184.1434" width="3.0749" height="66.7961" style="fill:#162041;"></rect><rect x="372.92" y="281.6489" width="3.07489" height="86.3364" style="fill:#162041;"></rect><rect x="510.235" y="281.6489" width="3.07479" height="86.3364" style="fill:#162041;"></rect><rect x="496.66339" y="184.1434" width="3.0749" height="66.7961" style="fill:#162041;"></rect><rect x="584.32619" y="184.1434" width="3.0749" height="66.7961" style="fill:#162041;"></rect><polygon points="74.2319 351.3753 195.9418 284.0335 238.2918 284.0335 71.4469 377.1106 74.2319 351.3753" style="fill:#fff; opacity:.3;"></polygon><polygon points="75.5313 342.4826 181.8331 284.0335 171.0352 283.9349 76.5043 334.6985 75.5313 342.4826" style="fill:#fff; opacity:.3;"></polygon><polygon points="101.029 221.792 193.0652 180.2062 229.8005 179.7739 96.9293 237.8447 101.029 221.792" style="fill:#fff; opacity:.3;"></polygon><line x1="635.29229" y1="285.6188" x2="685.95279" y2="285.6188" style="fill:none; stroke:#263238; stroke-miterlimit:10;"></line><polygon points="375.99489 328.5294 468.81619 285.5325 510.235 285.6188 510.235 305.237 375.99489 363.7478 375.99489 328.5294" style="fill:#fff; opacity:.1;"></polygon><polyline points="513.30979 352.2076 635.29229 305.808 635.133 285.6045 513.30979 332.2925 513.30979 347.0831" style="fill:#fff; opacity:.1;"></polyline><polygon points="635.13289 313.9533 513.30989 360.6413 513.30989 363.7478 525.67479 363.5799 635.29229 321.2051 635.13289 313.9533" style="fill:#fff; opacity:.1;"></polygon><polygon points="269.6629 257.1306 327.08219 224.8358 353.75739 260.2083 297.5932 292.5414 269.6629 257.1306" style="fill:#fff; opacity:.1;"></polygon><polygon points="306.5356 303.8787 362.46939 271.7608 368.26039 279.44 314.4819 313.9533 306.5356 303.8787" style="fill:#fff; opacity:.1;"></polygon><path d="M424.68649,240.9329l116.1163-54.547h66.2616s-102.1381,54.9365-103.4056,54.547-78.9723,0-78.9723,0Z" style="fill:#fff; opacity:.1;"></path><polygon points="520.627 241.106 631.17229 186.56 655.31339 186.56 548.26459 240.3135 520.627 241.106" style="fill:#fff; opacity:.1;"></polygon><g><g><path d="M71.9835,310.4627h0c-4.3831,0-7.9363-3.5532-7.9363-7.9363v-27.9332c0-4.3831,3.5532-7.9363,7.9363-7.9363h0c4.3831,0,7.9364,3.5532,7.9364,7.9363v27.9332c0,4.3831-3.5533,7.9363-7.9364,7.9363Z" style="fill:#162041;"></path><path d="M70.0892,269.3618s2.0609-7.4707,7.342-8.2435c5.281-.7729,14.6838,0,14.6838,0v3.95s-10.8197-.4293-12.6229,0c-1.8033,.4294-3.8642,5.968-3.8642,5.968l-5.5387-1.6745Z" style="fill:#162041;"></path></g><g style="opacity:.3;"><path d="M71.9835,310.4627h0c-4.3831,0-7.9363-3.5532-7.9363-7.9363v-27.9332c0-4.3831,3.5532-7.9363,7.9363-7.9363h0c4.3831,0,7.9364,3.5532,7.9364,7.9363v27.9332c0,4.3831-3.5533,7.9363-7.9364,7.9363Z" style="fill:#fff;"></path><path d="M70.0892,269.3618s2.0609-7.4707,7.342-8.2435c5.281-.7729,14.6838,0,14.6838,0v3.95s-10.8197-.4293-12.6229,0c-1.8033,.4294-3.8642,5.968-3.8642,5.968l-5.5387-1.6745Z" style="fill:#fff;"></path></g></g><g><g><rect x="224.2579" y="269.598" width="15.8727" height="43.8058" rx="7.9363" ry="7.9363" style="fill:#162041;"></rect><path d="M230.3,272.3029s2.0608-7.4707,7.3419-8.2436c5.281-.7728,14.6838,0,14.6838,0v3.9501s-10.8196-.4294-12.6229,0c-1.8033,.4293-3.8642,5.968-3.8642,5.968l-5.5386-1.6745Z" style="fill:#162041;"></path></g><g style="opacity:.3;"><rect x="224.2579" y="269.598" width="15.8727" height="43.8058" rx="7.9363" ry="7.9363" style="fill:#fff;"></rect><path d="M230.3,272.3029s2.0608-7.4707,7.3419-8.2436c5.281-.7728,14.6838,0,14.6838,0v3.9501s-10.8196-.4294-12.6229,0c-1.8033,.4293-3.8642,5.968-3.8642,5.968l-5.5386-1.6745Z" style="fill:#fff;"></path></g></g><path d="M513.77719,422.8682v-59.1406" style="fill:none; stroke:#263238; stroke-miterlimit:10;"></path></g></g></svg>
